# 3ds Max Wavefront OBJ Exporter v0.97b - (c)2007 guruware
# File Created: 05.11.2013 15:40:35

#
# object Box002
#

v  36.7330 0.0000 11.6720
v  50.4530 0.0000 11.6720
v  50.4530 0.0000 -2.0470
v  36.7330 0.0000 -2.0470
v  50.4530 -15.0000 -2.0470
v  50.4530 -15.0000 11.6720
v  36.7330 -15.0000 11.6720
v  36.7330 -15.0000 -2.0470
v  50.4530 -0.6400 -2.6880
v  50.4530 -14.3600 -2.6880
v  36.7330 -14.3600 -2.6880
v  36.7330 -0.6400 -2.6880
v  51.0930 -0.6400 11.6720
v  51.0930 -14.3600 11.6720
v  51.0930 -14.3600 -2.0470
v  51.0930 -0.6400 -2.0470
v  36.7330 -0.6400 12.3120
v  36.7330 -14.3600 12.3120
v  50.4530 -14.3600 12.3120
v  50.4530 -0.6400 12.3120
v  36.0930 -0.6400 -2.0470
v  36.0930 -14.3600 -2.0470
v  36.0930 -14.3600 11.6720
v  36.0930 -0.6400 11.6720
# 24 vertices

vn 0.0000 1.0000 0.0000
vn 0.0000 -1.0000 0.0000
vn 0.0000 0.0000 -1.0000
vn 1.0000 0.0000 0.0000
vn 0.0000 0.0000 1.0000
vn -1.0000 0.0000 0.0000
vn -0.5774 0.5774 -0.5774
vn 0.5774 0.5774 -0.5774
vn -0.5774 0.5774 0.5774
vn 0.5774 0.5774 0.5774
vn -0.5774 -0.5774 -0.5774
vn 0.5774 -0.5774 -0.5774
vn -0.5774 -0.5774 0.5774
vn 0.5774 -0.5774 0.5774
vn -0.7071 0.7071 0.0000
vn 0.0000 0.7071 0.7071
vn 0.7071 0.7071 0.0000
vn 0.0000 0.7071 -0.7071
vn 0.0000 -0.7071 -0.7071
vn 0.7071 -0.7071 0.0000
vn 0.0000 -0.7071 0.7071
vn -0.7071 -0.7071 0.0000
vn 0.7071 0.0000 -0.7071
vn -0.7071 0.0000 -0.7071
vn 0.7071 0.0000 0.7071
vn -0.7071 0.0000 0.7071
# 26 vertex normals

vt 0.7511 0.4880 0.0000
vt 0.7512 0.2595 0.0000
vt 0.9808 0.2598 0.0000
vt 0.9806 0.4880 0.0000
vt 0.2629 0.2595 0.0000
vt 0.4914 0.2596 0.0000
vt 0.4913 0.4877 0.0000
vt 0.2628 0.4876 0.0000
vt 0.0191 0.2593 0.0000
vt 0.2475 0.2594 0.0000
vt 0.2474 0.4876 0.0000
vt 0.0190 0.4874 0.0000
vt 0.7528 0.2451 0.0000
vt 0.7535 0.0181 0.0000
vt 0.9804 0.0187 0.0000
vt 0.9795 0.2455 0.0000
vt 0.7355 0.4878 0.0000
vt 0.5068 0.4877 0.0000
vt 0.5069 0.2596 0.0000
vt 0.7356 0.2597 0.0000
vt 0.9794 0.5023 0.0000
vt 0.9799 0.7291 0.0000
vt 0.7531 0.7294 0.0000
vt 0.7526 0.5024 0.0000
vt 0.9935 0.5002 0.0000
vt 0.9936 0.2476 0.0000
vt 0.7385 0.5005 0.0000
vt 0.7387 0.2470 0.0000
vt 0.9942 0.7310 0.0000
vt 0.9818 0.7433 0.0000
vt 0.9823 0.0045 0.0000
vt 0.9946 0.0168 0.0000
vt 0.7512 0.7436 0.0000
vt 0.7389 0.7313 0.0000
vt 0.7393 0.0162 0.0000
vt 0.7517 0.0039 0.0000
vt 0.0039 0.4874 0.0000
vt 0.0040 0.2593 0.0000
# 38 texture coords

g Box002
s 1
f 1/1/1 2/2/1 3/3/1 4/4/1 
f 5/5/2 6/6/2 7/7/2 8/8/2 
f 9/9/3 10/10/3 11/11/3 12/12/3 
f 13/13/4 14/14/4 15/15/4 16/16/4 
f 17/17/5 18/18/5 19/19/5 20/20/5 
f 21/21/6 22/22/6 23/23/6 24/24/6 
f 12/25/7 21/21/7 4/4/7 
f 3/3/8 16/16/8 9/26/8 
f 24/24/9 17/27/9 1/1/9 
f 2/2/10 20/28/10 13/13/10 
f 11/29/11 8/30/11 22/22/11 
f 15/15/12 5/31/12 10/32/12 
f 23/23/13 7/33/13 18/34/13 
f 19/35/14 6/36/14 14/14/14 
f 21/21/15 24/24/15 1/1/15 4/4/15 
f 17/17/16 20/20/16 2/2/16 1/1/16 
f 13/13/17 16/16/17 3/3/17 2/2/17 
f 9/9/18 12/12/18 4/37/18 3/38/18 
f 11/11/19 10/10/19 5/5/19 8/8/19 
f 15/15/20 14/14/20 6/36/20 5/31/20 
f 19/19/21 18/18/21 7/7/21 6/6/21 
f 23/23/22 22/22/22 8/30/22 7/33/22 
f 16/16/23 15/15/23 10/32/23 9/26/23 
f 22/22/24 21/21/24 12/25/24 11/29/24 
f 20/28/25 19/35/25 14/14/25 13/13/25 
f 24/24/26 23/23/26 18/34/26 17/27/26 
# 18 polygons - 8 triangles

